<svg xmlns="http://www.w3.org/2000/svg" version="1.1" xmlns:xlink="http://www.w3.org/1999/xlink" xmlns:svgjs="http://svgjs.dev/svgjs" width="2000" height="1247" viewBox="0 0 2000 1247"><g transform="matrix(1,0,0,1,-1.2121212121212466,0.504858299595071)"><svg viewBox="0 0 396 247" data-background-color="#ffffff" preserveAspectRatio="xMidYMid meet" height="1247" width="2000" xmlns="http://www.w3.org/2000/svg" xmlns:xlink="http://www.w3.org/1999/xlink"><g id="tight-bounds" transform="matrix(1,0,0,1,0.2400000000000091,-0.09999999999999432)"><svg viewBox="0 0 395.52 247.2" height="247.2" width="395.52"><g><svg></svg></g><g><svg viewBox="0 0 395.52 247.2" height="247.2" width="395.52"><mask id="e3e938bb-edb6-49ff-b50a-351609864003"><rect width="640" height="400" fill="white"></rect><g transform="matrix(1,0,0,1,39.55199999999999,52.833802987371214)"><svg viewBox="0 0 316.416 141.53239402525756" height="141.53239402525756" width="316.416"><g><svg viewBox="0 0 316.416 141.53239402525756" height="141.53239402525756" width="316.416"><g><svg viewBox="0 0 316.416 141.53239402525756" height="141.53239402525756" width="316.416"><g><svg viewBox="0 0 316.416 141.53239402525756" height="141.53239402525756" width="316.416"><g id="SvgjsG1136"><svg viewBox="0 0 316.416 141.53239402525756" height="141.53239402525756" width="316.416" id="SvgjsSvg1135"><g><svg viewBox="0 0 316.416 83.0748745046235" height="83.0748745046235" width="316.416"><g transform="matrix(1,0,0,1,0,0)"><svg width="316.416" viewBox="0.6500000000000004 -36.35 152.39 40.75" height="83.0748745046235" data-palette-color="#4b91f1"><path d="M16.25-32.25Q23.1-32.25 26.75-28.35 30.4-24.45 30.4-17.15L30.4-17.15Q30.4-8.7 26.45-4.2 22.5 0.3 15.1 0.3L15.1 0.3Q13.05 0.3 10.13 0.23 7.2 0.15 4.7 0L4.7 0 4.65 0 4.9-9.65 4.65-32.05 4.7-32.05 16.25-32.25ZM15.75-3.05Q20.85-3.05 23.58-6.38 26.3-9.7 26.3-16.3L26.3-16.3Q26.3-28.9 15.95-28.9L15.95-28.9Q12.8-28.9 8.7-28.7L8.7-28.7 8.5-10 8.65-3.35Q10.2-3.2 12.38-3.13 14.55-3.05 15.75-3.05L15.75-3.05ZM55-3.5L55.25-3.1 54.95 0 36.95 0 37.2-9.65 36.95-32.05 55-32.05 55.2-31.65 54.9-28.55 47.35-28.7 41-28.6 40.9-18.1 46.9-18 52.2-18.15 52.5-17.8 52.15-14.7 46.55-14.8 40.85-14.75 40.8-10 40.95-3.35 47.3-3.3 55-3.5ZM89.65-32.05L92.8 0 89.2 0 88.45-9.75 86.75-25.7 86.4-25.7 77.5-3.7 74.2-3.7 65.75-25.7 65.35-25.7 63.65-10.05 62.8 0 59.4 0 62.75-32.05 67.3-32.05 68.95-27.15 75.9-8.9 76.2-8.9 83.5-27.45 85.15-32.05 89.65-32.05ZM112.09-32.35Q118.69-32.35 122.22-28.3 125.74-24.25 125.74-16.65L125.74-16.65Q125.74-8.45 121.99-4.03 118.24 0.4 111.29 0.4L111.29 0.4Q104.79 0.4 101.27-3.8 97.74-8 97.74-15.75L97.74-15.75Q97.74-23.75 101.47-28.05 105.19-32.35 112.09-32.35L112.09-32.35ZM111.84-29.1Q101.84-29.1 101.84-16.2L101.84-16.2Q101.84-9.35 104.27-6.05 106.69-2.75 111.59-2.75L111.59-2.75Q121.59-2.75 121.59-15.9L121.59-15.9Q121.59-22.6 119.17-25.85 116.74-29.1 111.84-29.1L111.84-29.1ZM140.94-32.3Q144.39-32.3 148.09-30.8L148.09-30.8 147.44-26.95 146.74-26.75Q145.29-27.85 143.67-28.45 142.04-29.05 140.44-29.05L140.44-29.05Q138.59-29.05 137.22-28.3 135.84-27.55 135.12-26.35 134.39-25.15 134.39-23.85L134.39-23.85Q134.39-22.5 135.22-21.48 136.04-20.45 137.29-19.7 138.54-18.95 140.69-17.9L140.69-17.9Q143.39-16.65 145.04-15.58 146.69-14.5 147.87-12.85 149.04-11.2 149.04-8.85L149.04-8.85Q149.04-6.35 147.69-4.25 146.34-2.15 143.89-0.9 141.44 0.35 138.29 0.35L138.29 0.35Q136.19 0.35 133.92-0.23 131.64-0.8 129.69-1.9L129.69-1.9 130.19-6 130.74-6.25Q132.49-4.55 134.62-3.73 136.74-2.9 138.69-2.9L138.69-2.9Q140.59-2.9 142.07-3.65 143.54-4.4 144.32-5.65 145.09-6.9 145.09-8.3L145.09-8.3Q145.09-10.4 143.49-11.68 141.89-12.95 138.64-14.45L138.64-14.45Q135.99-15.75 134.39-16.78 132.79-17.8 131.64-19.43 130.49-21.05 130.49-23.4L130.49-23.4Q130.49-25.85 131.82-27.9 133.14-29.95 135.52-31.13 137.89-32.3 140.94-32.3L140.94-32.3Z" opacity="1" transform="matrix(1,0,0,1,0,0)" fill="black" class="wordmark-text-0" id="SvgjsPath1134" stroke-width="7" stroke="black" stroke-linejoin="round"></path></svg></g></svg></g><g transform="matrix(1,0,0,1,3.5,99.23317584824304)"><svg viewBox="0 0 309.416 42.299218177014524" height="42.299218177014524" width="309.416"><g transform="matrix(1,0,0,1,0,0)"><svg width="309.416" viewBox="-1.71 -33.15 272.5 37.59" height="42.299218177014524" data-palette-color="#4b91f1"><path d="M2.29-26.81L2.39-28.66 14.21-28.66Q21.92-28.66 26.25-24.98 30.57-21.29 30.57-14.65L30.57-14.65Q30.57-10.35 28.56-7.03 26.56-3.71 23-1.86 19.43 0 14.79 0L14.79 0 2.39 0 2.29-1.86 5.27-2.54Q5.37-2.98 5.44-5.03 5.52-7.08 5.52-9.72L5.52-9.72 5.52-18.9Q5.52-21.83 5.44-23.83 5.37-25.83 5.27-26.12L5.27-26.12 2.29-26.81ZM9.77-26.03L9.77-26.03Q9.77-25.54 9.74-24.78 9.72-24.02 9.69-22.66 9.67-21.29 9.67-18.9L9.67-18.9 9.67-9.72Q9.67-8.25 9.69-6.96 9.72-5.66 9.79-4.64 9.86-3.61 9.91-2.93L9.91-2.93Q11.47-2.73 12.72-2.61 13.96-2.49 15.14-2.49L15.14-2.49Q20.31-2.49 23-5.25 25.68-8.01 25.68-13.23L25.68-13.23Q25.68-16.41 24.9-18.85 24.12-21.29 22.58-22.97 21.04-24.66 18.82-25.51 16.6-26.37 13.67-26.37L13.67-26.37Q12.79-26.37 11.82-26.29 10.84-26.22 9.77-26.03ZM86.49-6.88L84.48 0.24Q83.07 0.1 81.97 0.05 80.87 0 79.89 0L79.89 0 63.15 0 63-1.86 66.03-2.54Q66.08-2.78 66.12-3.66 66.17-4.54 66.2-6.05 66.22-7.57 66.22-9.72L66.22-9.72 66.22-18.9Q66.22-21.09 66.2-22.63 66.17-24.17 66.12-25.05 66.08-25.93 66.03-26.12L66.03-26.12 63-26.81 63.15-28.66 78.82-28.66Q79.5-28.66 80.28-28.66 81.07-28.66 81.92-28.74 82.77-28.81 83.7-28.86L83.7-28.86 84.68-22.41 82.48-22.07 80.87-26.17Q80.48-26.27 79.99-26.29 79.5-26.32 78.97-26.32L78.97-26.32 73.45-26.32Q72.52-26.32 71.81-26.29 71.1-26.27 70.42-26.17L70.42-26.17Q70.42-25.98 70.4-25.07 70.37-24.17 70.35-23 70.32-21.83 70.32-20.65L70.32-20.65 70.32-7.47Q70.32-6.49 70.35-5.49 70.37-4.49 70.4-3.74 70.42-2.98 70.42-2.64L70.42-2.64Q71.15-2.59 71.89-2.54 72.62-2.49 73.55-2.49L73.55-2.49 78.28-2.49Q79.36-2.49 80.04-2.51 80.72-2.54 81.11-2.59 81.5-2.64 81.75-2.69L81.75-2.69 84.29-7.32 86.49-6.88ZM81.16-10.01L79.06-10.01 78.48-13.33Q78.23-13.43 77.65-13.48 77.06-13.53 76.23-13.53L76.23-13.53 72.52-13.53Q71.89-13.53 71.13-13.48 70.37-13.43 69.59-13.38L69.59-13.38 69.59-16.06Q70.37-16.02 71.13-15.99 71.89-15.97 72.52-15.97L72.52-15.97 76.23-15.97Q77.06-15.97 77.65-15.99 78.23-16.02 78.48-16.11L78.48-16.11 79.06-19.48 81.16-19.48 81.16-10.01ZM117.99-26.81L118.09-28.66 126.53-28.66 136.79-5.27 135.91-5.27 145.97-28.66 153.88-28.66 154.03-26.81 151-26.17Q150.95-25.49 150.97-23.61 151-21.73 151.05-19.58L151.05-19.58 151.24-10.64Q151.29-8.2 151.34-6.57 151.39-4.93 151.44-3.98 151.49-3.03 151.53-2.49L151.53-2.49 154.51-1.86 154.42 0 144.06 0 143.92-1.86 146.9-2.49Q146.95-3.08 146.95-3.86 146.95-4.64 146.95-6.05 146.95-7.47 146.9-9.91L146.9-9.91 146.8-27.25 148.07-27.25 136.25 0.15 134.54 0.15 122.43-27.29 123.7-27.29 123.75-10.69Q123.75-6.64 123.78-4.81 123.8-2.98 123.85-2.54L123.85-2.54 127.17-1.86 127.02 0 117.45 0 117.31-1.86 120.63-2.54Q120.68-2.88 120.7-3.81 120.72-4.74 120.77-6.27 120.82-7.81 120.82-9.91L120.82-9.91 120.97-19.58Q121.02-21.73 120.99-23.51 120.97-25.29 120.97-26.12L120.97-26.12 117.99-26.81ZM201.35 0.44L201.35 0.44Q197.1 0.44 193.81-1.42 190.51-3.27 188.65-6.59 186.8-9.91 186.8-14.21L186.8-14.21Q186.8-18.51 188.68-21.88 190.56-25.24 193.9-27.17 197.25-29.1 201.45-29.1L201.45-29.1Q205.55-29.1 208.67-27.25 211.8-25.39 213.58-22.12 215.36-18.85 215.36-14.55L215.36-14.55Q215.36-11.28 214.24-8.54 213.12-5.81 211.16-3.78 209.21-1.76 206.7-0.66 204.18 0.44 201.35 0.44ZM201.79-2.2L201.79-2.2Q204.48-2.2 206.4-3.56 208.33-4.93 209.38-7.45 210.43-9.96 210.43-13.38L210.43-13.38Q210.43-17.33 209.21-20.31 207.99-23.29 205.87-24.98 203.74-26.66 200.86-26.66L200.86-26.66Q196.71-26.66 194.29-23.56 191.88-20.46 191.88-15.14L191.88-15.14Q191.88-11.33 193.15-8.42 194.42-5.52 196.66-3.86 198.91-2.2 201.79-2.2ZM256.24 0.44L256.24 0.44Q254.1 0.44 251.85-0.1 249.6-0.63 248.14-1.46L248.14-1.46 247.89-7.76 249.99-7.96 251.36-3.61Q252.53-2.83 253.97-2.42 255.41-2 256.98-2L256.98-2Q259.37-2 260.83-3.17 262.3-4.35 262.3-6.35L262.3-6.35Q262.3-8.06 261.27-9.2 260.25-10.35 258.61-11.21 256.98-12.06 255.14-12.87 253.31-13.67 251.7-14.72 250.09-15.77 249.04-17.31 247.99-18.85 247.99-21.14L247.99-21.14Q247.99-23.49 249.33-25.32 250.68-27.15 253.02-28.15 255.36-29.15 258.39-29.15L258.39-29.15Q259.66-29.15 260.86-29.03 262.05-28.91 263.08-28.64 264.1-28.37 264.94-28.03L264.94-28.03 265.33-21.92 263.23-21.73 261.86-25.83Q260.3-26.81 257.85-26.81L257.85-26.81Q255.36-26.81 253.88-25.59 252.39-24.37 252.39-22.41L252.39-22.41Q252.39-20.65 253.44-19.46 254.49-18.26 256.12-17.38 257.76-16.5 259.59-15.7 261.42-14.89 263.06-13.87 264.69-12.84 265.74-11.35 266.79-9.86 266.79-7.67L266.79-7.67Q266.79-5.32 265.42-3.49 264.06-1.66 261.69-0.61 259.32 0.44 256.24 0.44Z" opacity="1" transform="matrix(1,0,0,1,0,0)" fill="black" class="slogan-text-1" id="SvgjsPath1133" stroke-width="7" stroke="black" stroke-linejoin="round"></path></svg></g></svg></g></svg></g></svg></g></svg></g></svg></g></svg></g></mask><g transform="matrix(1,0,0,1,39.55199999999999,52.833802987371214)"><svg viewBox="0 0 316.416 141.53239402525756" height="141.53239402525756" width="316.416"><g><svg viewBox="0 0 316.416 141.53239402525756" height="141.53239402525756" width="316.416"><g><svg viewBox="0 0 316.416 141.53239402525756" height="141.53239402525756" width="316.416"><g><svg viewBox="0 0 316.416 141.53239402525756" height="141.53239402525756" width="316.416"><g id="textblocktransform"><svg viewBox="0 0 316.416 141.53239402525756" height="141.53239402525756" width="316.416" id="textblock"><g><svg viewBox="0 0 316.416 83.0748745046235" height="83.0748745046235" width="316.416"><g transform="matrix(1,0,0,1,0,0)"><svg width="316.416" viewBox="0.6500000000000004 -36.35 152.39 40.75" height="83.0748745046235" data-palette-color="#4b91f1"><path d="M16.25-32.25Q23.1-32.25 26.75-28.35 30.4-24.45 30.4-17.15L30.4-17.15Q30.4-8.7 26.45-4.2 22.5 0.3 15.1 0.3L15.1 0.3Q13.05 0.3 10.13 0.23 7.2 0.15 4.7 0L4.7 0 4.65 0 4.9-9.65 4.65-32.05 4.7-32.05 16.25-32.25ZM15.75-3.05Q20.85-3.05 23.58-6.38 26.3-9.7 26.3-16.3L26.3-16.3Q26.3-28.9 15.95-28.9L15.95-28.9Q12.8-28.9 8.7-28.7L8.7-28.7 8.5-10 8.65-3.35Q10.2-3.2 12.38-3.13 14.55-3.05 15.75-3.05L15.75-3.05ZM55-3.5L55.25-3.1 54.95 0 36.95 0 37.2-9.65 36.95-32.05 55-32.05 55.2-31.65 54.9-28.55 47.35-28.7 41-28.6 40.9-18.1 46.9-18 52.2-18.15 52.5-17.8 52.15-14.7 46.55-14.8 40.85-14.75 40.8-10 40.95-3.35 47.3-3.3 55-3.5ZM89.65-32.05L92.8 0 89.2 0 88.45-9.75 86.75-25.7 86.4-25.7 77.5-3.7 74.2-3.7 65.75-25.7 65.35-25.7 63.65-10.05 62.8 0 59.4 0 62.75-32.05 67.3-32.05 68.95-27.15 75.9-8.9 76.2-8.9 83.5-27.45 85.15-32.05 89.65-32.05ZM112.09-32.35Q118.69-32.35 122.22-28.3 125.74-24.25 125.74-16.65L125.74-16.65Q125.74-8.45 121.99-4.03 118.24 0.4 111.29 0.4L111.29 0.4Q104.79 0.4 101.27-3.8 97.74-8 97.74-15.75L97.74-15.75Q97.74-23.75 101.47-28.05 105.19-32.35 112.09-32.35L112.09-32.35ZM111.84-29.1Q101.84-29.1 101.84-16.2L101.84-16.2Q101.84-9.35 104.27-6.05 106.69-2.75 111.59-2.75L111.59-2.75Q121.59-2.75 121.59-15.9L121.59-15.9Q121.59-22.6 119.17-25.85 116.74-29.1 111.84-29.1L111.84-29.1ZM140.94-32.3Q144.39-32.3 148.09-30.8L148.09-30.8 147.44-26.95 146.74-26.75Q145.29-27.85 143.67-28.45 142.04-29.05 140.44-29.05L140.44-29.05Q138.59-29.05 137.22-28.3 135.84-27.55 135.12-26.35 134.39-25.15 134.39-23.85L134.39-23.85Q134.39-22.5 135.22-21.48 136.04-20.45 137.29-19.7 138.54-18.95 140.69-17.9L140.69-17.9Q143.39-16.65 145.04-15.58 146.69-14.5 147.87-12.85 149.04-11.2 149.04-8.85L149.04-8.85Q149.04-6.35 147.69-4.25 146.34-2.15 143.89-0.9 141.44 0.35 138.29 0.35L138.29 0.35Q136.19 0.35 133.92-0.23 131.64-0.8 129.69-1.9L129.69-1.9 130.19-6 130.74-6.25Q132.49-4.55 134.62-3.73 136.74-2.9 138.69-2.9L138.69-2.9Q140.59-2.9 142.07-3.65 143.54-4.4 144.32-5.65 145.09-6.9 145.09-8.3L145.09-8.3Q145.09-10.4 143.49-11.68 141.89-12.95 138.64-14.45L138.64-14.45Q135.99-15.75 134.39-16.78 132.79-17.8 131.64-19.43 130.49-21.05 130.49-23.4L130.49-23.4Q130.49-25.85 131.82-27.9 133.14-29.95 135.52-31.13 137.89-32.3 140.94-32.3L140.94-32.3Z" opacity="1" transform="matrix(1,0,0,1,0,0)" fill="#4b91f1" class="wordmark-text-0" data-fill-palette-color="primary" id="text-0"></path></svg></g></svg></g><g transform="matrix(1,0,0,1,3.5,99.23317584824304)"><svg viewBox="0 0 309.416 42.299218177014524" height="42.299218177014524" width="309.416"><g transform="matrix(1,0,0,1,0,0)"><svg width="309.416" viewBox="-1.71 -33.15 272.5 37.59" height="42.299218177014524" data-palette-color="#4b91f1"><path d="M2.29-26.81L2.39-28.66 14.21-28.66Q21.92-28.66 26.25-24.98 30.57-21.29 30.57-14.65L30.57-14.65Q30.57-10.35 28.56-7.03 26.56-3.71 23-1.86 19.43 0 14.79 0L14.79 0 2.39 0 2.29-1.86 5.27-2.54Q5.37-2.98 5.44-5.03 5.52-7.08 5.52-9.72L5.52-9.72 5.52-18.9Q5.52-21.83 5.44-23.83 5.37-25.83 5.27-26.12L5.27-26.12 2.29-26.81ZM9.77-26.03L9.77-26.03Q9.77-25.54 9.74-24.78 9.72-24.02 9.69-22.66 9.67-21.29 9.67-18.9L9.67-18.9 9.67-9.72Q9.67-8.25 9.69-6.96 9.72-5.66 9.79-4.64 9.86-3.61 9.91-2.93L9.91-2.93Q11.47-2.73 12.72-2.61 13.96-2.49 15.14-2.49L15.14-2.49Q20.31-2.49 23-5.25 25.68-8.01 25.68-13.23L25.68-13.23Q25.68-16.41 24.9-18.85 24.12-21.29 22.58-22.97 21.04-24.66 18.82-25.51 16.6-26.37 13.67-26.37L13.67-26.37Q12.79-26.37 11.82-26.29 10.84-26.22 9.77-26.03ZM86.49-6.88L84.48 0.24Q83.07 0.1 81.97 0.05 80.87 0 79.89 0L79.89 0 63.15 0 63-1.86 66.03-2.54Q66.08-2.78 66.12-3.66 66.17-4.54 66.2-6.05 66.22-7.57 66.22-9.72L66.22-9.72 66.22-18.9Q66.22-21.09 66.2-22.63 66.17-24.17 66.12-25.05 66.08-25.93 66.03-26.12L66.03-26.12 63-26.81 63.15-28.66 78.82-28.66Q79.5-28.66 80.28-28.66 81.07-28.66 81.92-28.74 82.77-28.81 83.7-28.86L83.7-28.86 84.68-22.41 82.48-22.07 80.87-26.17Q80.48-26.27 79.99-26.29 79.5-26.32 78.97-26.32L78.97-26.32 73.45-26.32Q72.52-26.32 71.81-26.29 71.1-26.27 70.42-26.17L70.42-26.17Q70.42-25.98 70.4-25.07 70.37-24.17 70.35-23 70.32-21.83 70.32-20.65L70.32-20.65 70.32-7.47Q70.32-6.49 70.35-5.49 70.37-4.49 70.4-3.74 70.42-2.98 70.42-2.64L70.42-2.64Q71.15-2.59 71.89-2.54 72.62-2.49 73.55-2.49L73.55-2.49 78.28-2.49Q79.36-2.49 80.04-2.51 80.72-2.54 81.11-2.59 81.5-2.64 81.75-2.69L81.75-2.69 84.29-7.32 86.49-6.88ZM81.16-10.01L79.06-10.01 78.48-13.33Q78.23-13.43 77.65-13.48 77.06-13.53 76.23-13.53L76.23-13.53 72.52-13.53Q71.89-13.53 71.13-13.48 70.37-13.43 69.59-13.38L69.59-13.38 69.59-16.06Q70.37-16.02 71.13-15.99 71.89-15.97 72.52-15.97L72.52-15.97 76.23-15.97Q77.06-15.97 77.65-15.99 78.23-16.02 78.48-16.11L78.48-16.11 79.06-19.48 81.16-19.48 81.16-10.01ZM117.99-26.81L118.09-28.66 126.53-28.66 136.79-5.27 135.91-5.27 145.97-28.66 153.88-28.66 154.03-26.81 151-26.17Q150.95-25.49 150.97-23.61 151-21.73 151.05-19.58L151.05-19.58 151.24-10.64Q151.29-8.2 151.34-6.57 151.39-4.93 151.44-3.98 151.49-3.03 151.53-2.49L151.53-2.49 154.51-1.86 154.42 0 144.06 0 143.92-1.86 146.9-2.49Q146.95-3.08 146.95-3.86 146.95-4.64 146.95-6.05 146.95-7.47 146.9-9.91L146.9-9.91 146.8-27.25 148.07-27.25 136.25 0.15 134.54 0.15 122.43-27.29 123.7-27.29 123.75-10.69Q123.75-6.64 123.78-4.81 123.8-2.98 123.85-2.54L123.85-2.54 127.17-1.86 127.02 0 117.45 0 117.31-1.86 120.63-2.54Q120.68-2.88 120.7-3.81 120.72-4.74 120.77-6.27 120.82-7.81 120.82-9.91L120.82-9.91 120.97-19.58Q121.02-21.73 120.99-23.51 120.97-25.29 120.97-26.12L120.97-26.12 117.99-26.81ZM201.35 0.44L201.35 0.44Q197.1 0.44 193.81-1.42 190.51-3.27 188.65-6.59 186.8-9.91 186.8-14.21L186.8-14.21Q186.8-18.51 188.68-21.88 190.56-25.24 193.9-27.17 197.25-29.1 201.45-29.1L201.45-29.1Q205.55-29.1 208.67-27.25 211.8-25.39 213.58-22.12 215.36-18.85 215.36-14.55L215.36-14.55Q215.36-11.28 214.24-8.54 213.12-5.81 211.16-3.78 209.21-1.76 206.7-0.66 204.18 0.44 201.35 0.44ZM201.79-2.2L201.79-2.2Q204.48-2.2 206.4-3.56 208.33-4.93 209.38-7.45 210.43-9.96 210.43-13.38L210.43-13.38Q210.43-17.33 209.21-20.31 207.99-23.29 205.87-24.98 203.74-26.66 200.86-26.66L200.86-26.66Q196.71-26.66 194.29-23.56 191.88-20.46 191.88-15.14L191.88-15.14Q191.88-11.33 193.15-8.42 194.42-5.52 196.66-3.86 198.91-2.2 201.79-2.2ZM256.24 0.44L256.24 0.44Q254.1 0.44 251.85-0.1 249.6-0.63 248.14-1.46L248.14-1.46 247.89-7.76 249.99-7.96 251.36-3.61Q252.53-2.83 253.97-2.42 255.41-2 256.98-2L256.98-2Q259.37-2 260.83-3.17 262.3-4.35 262.3-6.35L262.3-6.35Q262.3-8.06 261.27-9.2 260.25-10.35 258.61-11.21 256.98-12.06 255.14-12.87 253.31-13.67 251.7-14.72 250.09-15.77 249.04-17.31 247.99-18.85 247.99-21.14L247.99-21.14Q247.99-23.49 249.33-25.32 250.68-27.15 253.02-28.15 255.36-29.15 258.39-29.15L258.39-29.15Q259.66-29.15 260.86-29.03 262.05-28.91 263.08-28.64 264.1-28.37 264.94-28.03L264.94-28.03 265.33-21.92 263.23-21.73 261.86-25.83Q260.3-26.81 257.85-26.81L257.85-26.81Q255.36-26.81 253.88-25.59 252.39-24.37 252.39-22.41L252.39-22.41Q252.39-20.65 253.44-19.46 254.49-18.26 256.12-17.38 257.76-16.5 259.59-15.7 261.42-14.89 263.06-13.87 264.69-12.84 265.74-11.35 266.79-9.86 266.79-7.67L266.79-7.67Q266.79-5.32 265.42-3.49 264.06-1.66 261.69-0.61 259.32 0.44 256.24 0.44Z" opacity="1" transform="matrix(1,0,0,1,0,0)" fill="#4b91f1" class="slogan-text-1" data-fill-palette-color="secondary" id="text-1"></path></svg></g></svg></g></svg></g></svg></g></svg></g></svg></g></svg></g><g mask="url(#e3e938bb-edb6-49ff-b50a-351609864003)"><g transform="matrix(4.994093445761539, 0, 0, 4.994093445761539, 16.881426534685687, 0.9999999999999858)"><svg xmlns="http://www.w3.org/2000/svg" xmlns:xlink="http://www.w3.org/1999/xlink" version="1.1" x="0" y="0" viewBox="6.768000000000001 20.451 72.437 49.09799999999999" style="enable-background:new 0 0 90 90;" xml:space="preserve" height="49.09799999999999" width="72.437" class="icon-none" data-fill-palette-color="accent" id="none"><g fill="#4b91f1" data-fill-palette-color="accent"><path d="M76.559 20.451H31.47c-1.462 0-2.646 1.185-2.646 2.646v32.135h50.381V23.097C79.205 21.636 78.02 20.451 76.559 20.451zM76.329 53.026H31.702V23.518h44.627V53.026z" fill="#4b91f1" data-fill-palette-color="accent"></path><path d="M75.699 30.108c0 0-9.329 2.357-23.568 9.145C39.703 45.181 32.3 50.995 32.3 50.995v1.557h43.399V30.108z" fill="#4b91f1" data-fill-palette-color="accent"></path><path d="M78.88 55.696H28.392c-0.03 0-0.056 0.007-0.081 0.017L7.363 64.806c-0.419 0.182-0.595 0.357-0.595 0.826 0 0.034 0 3.491 0 3.491 0 0.276 0.298 0.426 0.695 0.426 1.046 0 43.411 0 45.158 0 1.751 0 4.364-0.484 5.838-1.138 1.331-0.591 17.089-7.455 20.132-8.782 0.328-0.142 0.507-0.516 0.503-0.919 0-0.84-0.005-2.812-0.012-2.848C79.063 55.765 78.979 55.696 78.88 55.696zM58.379 64.577c-1.394 0.619-3.976 1.121-5.758 1.121H7.607c-0.275 0-0.417-0.079-0.434-0.15C7.158 65.47 7.259 65.3 7.53 65.185l20.904-9.075h49.449C74.077 57.76 59.647 64.014 58.379 64.577z" fill="#4b91f1" data-fill-palette-color="accent"></path><polygon points="28.092,58.223 31.095,58.223 33.504,57.203 33.504,56.748 31.072,57.811 28.092,57.811  " fill="#4b91f1" data-fill-palette-color="accent"></polygon><polygon points="28.839,59.235 28.839,58.779 26.407,59.839 23.427,59.839 23.427,60.254 26.43,60.254  " fill="#4b91f1" data-fill-palette-color="accent"></polygon><polygon points="18.826,61.873 18.826,62.286 21.827,62.286 24.238,61.266 24.238,60.81 21.804,61.873  " fill="#4b91f1" data-fill-palette-color="accent"></polygon><polygon points="39.684,57.203 39.684,56.748 37.253,57.811 34.274,57.811 34.274,58.223 37.278,58.223  " fill="#4b91f1" data-fill-palette-color="accent"></polygon><polygon points="35.019,59.235 35.019,58.779 32.585,59.839 29.609,59.839 29.609,60.254 32.611,60.254  " fill="#4b91f1" data-fill-palette-color="accent"></polygon><polygon points="25.006,61.873 25.006,62.286 28.01,62.286 30.419,61.266 30.419,60.81 27.985,61.873  " fill="#4b91f1" data-fill-palette-color="accent"></polygon><polygon points="45.865,57.203 45.865,56.748 43.433,57.811 40.454,57.811 40.454,58.223 43.458,58.223  " fill="#4b91f1" data-fill-palette-color="accent"></polygon><polygon points="41.2,59.235 41.2,58.779 38.768,59.839 35.789,59.839 35.789,60.254 38.791,60.254  " fill="#4b91f1" data-fill-palette-color="accent"></polygon><polygon points="31.189,61.873 31.189,62.286 34.191,62.286 36.6,61.266 36.6,60.81 34.168,61.873  " fill="#4b91f1" data-fill-palette-color="accent"></polygon><polygon points="52.047,57.203 52.047,56.748 49.613,57.811 46.635,57.811 46.635,58.223 49.64,58.223  " fill="#4b91f1" data-fill-palette-color="accent"></polygon><polygon points="47.382,59.235 47.382,58.779 44.948,59.839 41.97,59.839 41.97,60.254 44.974,60.254  " fill="#4b91f1" data-fill-palette-color="accent"></polygon><polygon points="37.371,61.873 37.371,62.286 40.374,62.286 42.78,61.266 42.78,60.81 40.351,61.873  " fill="#4b91f1" data-fill-palette-color="accent"></polygon><polygon points="58.228,57.203 58.228,56.748 55.793,57.811 52.816,57.811 52.816,58.223 55.819,58.223  " fill="#4b91f1" data-fill-palette-color="accent"></polygon><polygon points="53.563,59.235 53.563,58.779 51.131,59.839 48.152,59.839 48.152,60.254 51.155,60.254  " fill="#4b91f1" data-fill-palette-color="accent"></polygon><polygon points="43.553,61.873 43.553,62.286 46.555,62.286 48.96,61.266 48.96,60.81 46.529,61.873  " fill="#4b91f1" data-fill-palette-color="accent"></polygon><polygon points="64.408,57.203 64.408,56.748 61.977,57.811 58.999,57.811 58.999,58.223 62,58.223  " fill="#4b91f1" data-fill-palette-color="accent"></polygon><polygon points="59.743,59.235 59.743,58.779 57.311,59.839 54.334,59.839 54.334,60.254 57.335,60.254  " fill="#4b91f1" data-fill-palette-color="accent"></polygon><polygon points="49.731,61.873 49.731,62.286 52.734,62.286 55.143,61.266 55.143,60.81 52.711,61.873  " fill="#4b91f1" data-fill-palette-color="accent"></polygon><polygon points="70.589,57.203 70.589,56.748 68.157,57.811 65.177,57.811 65.177,58.223 68.183,58.223  " fill="#4b91f1" data-fill-palette-color="accent"></polygon><polygon points="60.515,59.839 60.515,60.254 63.518,60.254 65.923,59.235 65.923,58.779 63.492,59.839  " fill="#4b91f1" data-fill-palette-color="accent"></polygon><polygon points="55.914,61.873 55.914,62.286 58.915,62.286 61.323,61.266 61.323,60.81 58.889,61.873  " fill="#4b91f1" data-fill-palette-color="accent"></polygon></g></svg></g></g></svg></g><defs></defs></svg><rect width="395.52" height="247.2" fill="none" stroke="none" visibility="hidden"></rect></g></svg></g></svg>